# xmcd
# Track frame offsets:
# 150
# 13281
# 32268
# 51714
# 65215
# 80732
# 100543
# 122042
# 135207
# 149383
#
# Disc length: 2237 seconds
# Revision: 0
# Processed by: cddbd v1.4PL0 Copyright (c) Steve Scherf et al.
# Submitted via: VisiTrax 2.9.3.171 - For more info visit www.synapsa.com
#
DISCID=8b08bb0a
DTITLE=Mills, Chris - The Silver Line
DYEAR=2002
DGENRE=Alt Country
TTITLE0=The Silver Line
TTITLE1=Suicide Note
TTITLE2=I Could Not Stand To See You
TTITLE3=Sleeptalking
TTITLE4=Everything's Gonna Be Cool
TTITLE5=Dry Eye
TTITLE6=Diamond
TTITLE7=Floorboards
TTITLE8=Lullaby
TTITLE9=Don't Be Crushed
EXTD=
EXTT0=
EXTT1=
EXTT2=
EXTT3=
EXTT4=
EXTT5=
EXTT6=
EXTT7=
EXTT8=
EXTT9=
PLAYORDER=
